<svg width="37" height="8" viewBox="0 0 37 8" fill="none" xmlns="http://www.w3.org/2000/svg">
<path fill-rule="evenodd" clip-rule="evenodd" d="M26.3944 2.38564C26.1489 2.53335 26.0561 2.66012 26.0211 2.73478C26.0294 2.74434 26.0389 2.75479 26.0496 2.76611C26.1642 2.88658 26.3401 3.02156 26.5634 3.17381C26.8069 3.33987 27.131 3.5731 27.3997 3.85574C27.6503 4.11927 28 4.57778 28 5.19435C28 6.18068 27.3408 6.90432 26.637 7.32792C25.9138 7.76321 24.9791 8 24 8V6C24.6778 6 25.2431 5.83258 25.6056 5.61436C25.8511 5.46665 25.9439 5.33988 25.9789 5.26522C25.9706 5.25566 25.9611 5.24521 25.9504 5.23389C25.8358 5.11342 25.6599 4.97844 25.4366 4.82619C25.1931 4.66013 24.869 4.4269 24.6003 4.14426C24.3497 3.88073 24 3.42222 24 2.80565C24 1.81932 24.6592 1.09568 25.363 0.67208C26.0862 0.23679 27.0209 0 28 0V2C27.3222 2 26.7569 2.16742 26.3944 2.38564Z" fill="#F19746"/>
<path fill-rule="evenodd" clip-rule="evenodd" d="M24.5652 0L21 0V5.0962e-06H19V8H21L23 8V6H21V5H23V3.00001H21V2H23.1034C23.341 1.10104 23.953 0.434681 24.5652 0Z" fill="#F19746"/>
<path fill-rule="evenodd" clip-rule="evenodd" d="M14.9995 0L11 0H9V8H11H14.3542C13.7638 7.4789 13.3284 6.78622 13.126 6H11V5H13V5L13 4C13 3.99948 13 3.99896 13 3.99844V3.00001H11V2H13.416C13.7639 1.20375 14.3132 0.515622 14.9995 0Z" fill="#FDCB4D"/>
<path fill-rule="evenodd" clip-rule="evenodd" d="M2 0H0V8H2V6C3.65685 6 5 4.65685 5 3C5 1.34315 3.65685 0 2 0ZM2 2L2 4C2.55228 4 3 3.55228 3 3C3 2.44772 2.55228 2 2 2Z" fill="#FDCB4D"/>
<rect x="6" width="2" height="8" fill="#FDCB4D"/>
<path fill-rule="evenodd" clip-rule="evenodd" d="M16 4C16 2.89543 16.8954 2 18 2V0C15.7909 0 14 1.79086 14 4V5C14 6.65685 15.3431 8 17 8H18V6H17C16.4477 6 16 5.55228 16 5V4Z" fill="#F19746"/>
<path fill-rule="evenodd" clip-rule="evenodd" d="M16 4C16 2.89543 16.8954 2 18 2V0C15.7909 0 14 1.79086 14 4V5C14 6.65685 15.3431 8 17 8H18V6H17C16.4477 6 16 5.55228 16 5V4Z" fill="#F19746"/>
<path fill-rule="evenodd" clip-rule="evenodd" d="M16 4C16 2.89543 16.8954 2 18 2V0C15.7909 0 14 1.79086 14 4V5C14 6.65685 15.3431 8 17 8H18V6H17C16.4477 6 16 5.55228 16 5V4Z" fill="#F19746"/>
<rect x="29" width="8" height="8" fill="#FDCB4D"/>
<rect x="29" y="6.3125" width="8" height="1.6875" fill="#674604"/>
<rect x="29" y="6.3125" width="8" height="1.6875" fill="#674604"/>
<rect x="29" y="6.3125" width="8" height="1.6875" fill="#F09744"/>
<rect x="31" y="4.3125" width="4" height="2" fill="#674604"/>
<rect x="31" y="4.3125" width="4" height="2" fill="#674604"/>
<rect x="31" y="4.3125" width="4" height="2" fill="#674604"/>
<rect x="35" y="0.3125" width="2" height="2" fill="#674604"/>
<rect x="35" y="0.3125" width="2" height="2" fill="#674604"/>
<rect x="35" y="0.3125" width="2" height="2" fill="#674604"/>
<rect x="33" y="0.3125" width="2" height="2" fill="#674604"/>
<rect x="33" y="0.3125" width="2" height="2" fill="#674604"/>
<rect x="33" y="0.3125" width="2" height="2" fill="#EBEBEB"/>
<rect x="29" y="0.3125" width="2" height="2" fill="#674604"/>
<rect x="29" y="0.3125" width="2" height="2" fill="#674604"/>
<rect x="29" y="0.3125" width="2" height="2" fill="#674604"/>
</svg>
