<svg width="55" height="4" viewBox="0 0 55 4" fill="none" xmlns="http://www.w3.org/2000/svg">
<path d="M1.63283 3.049C1.23849 3.049 0.937493 2.93933 0.729826 2.72C0.524493 2.50067 0.421826 2.18917 0.421826 1.7855C0.421826 1.58483 0.453326 1.40633 0.516326 1.25C0.579326 1.09133 0.66566 0.958333 0.775326 0.851C0.884993 0.741333 1.01566 0.6585 1.16733 0.6025C1.31899 0.5465 1.48349 0.5185 1.66083 0.5185C1.76349 0.5185 1.85683 0.526667 1.94083 0.543C2.02483 0.557 2.09833 0.5745 2.16133 0.5955C2.22433 0.614167 2.27683 0.634 2.31883 0.655C2.36083 0.676 2.39116 0.692333 2.40983 0.704L2.25233 1.145C2.17766 1.10533 2.09016 1.0715 1.98983 1.0435C1.89183 1.0155 1.77983 1.0015 1.65383 1.0015C1.56983 1.0015 1.48699 1.0155 1.40533 1.0435C1.32599 1.0715 1.25483 1.117 1.19183 1.18C1.13116 1.24067 1.08216 1.32 1.04483 1.418C1.00749 1.516 0.988826 1.635 0.988826 1.775C0.988826 1.887 1.00049 1.992 1.02383 2.09C1.04949 2.18567 1.08916 2.2685 1.14283 2.3385C1.19883 2.4085 1.27116 2.4645 1.35983 2.5065C1.44849 2.54617 1.55583 2.566 1.68183 2.566C1.76116 2.566 1.83233 2.56133 1.89533 2.552C1.95833 2.54267 2.01433 2.53217 2.06333 2.5205C2.11233 2.5065 2.15549 2.49133 2.19283 2.475C2.23016 2.45867 2.26399 2.4435 2.29433 2.4295L2.44483 2.867C2.36783 2.91367 2.25933 2.95567 2.11933 2.993C1.97933 3.03033 1.81716 3.049 1.63283 3.049ZM3.87086 1.621C3.82419 1.60933 3.76936 1.59767 3.70636 1.586C3.64336 1.572 3.57569 1.565 3.50336 1.565C3.47069 1.565 3.43102 1.5685 3.38436 1.5755C3.34002 1.58017 3.30619 1.586 3.28286 1.593V3H2.76136V1.257C2.85469 1.22433 2.96436 1.194 3.09036 1.166C3.21869 1.13567 3.36102 1.1205 3.51736 1.1205C3.54536 1.1205 3.57919 1.12283 3.61886 1.1275C3.65852 1.12983 3.69819 1.1345 3.73786 1.1415C3.77752 1.14617 3.81719 1.15317 3.85686 1.1625C3.89652 1.1695 3.93036 1.17883 3.95836 1.1905L3.87086 1.621ZM4.11624 2.0935C4.11624 1.93017 4.14074 1.78783 4.18974 1.6665C4.24107 1.54283 4.30757 1.44017 4.38924 1.3585C4.47091 1.27683 4.56424 1.215 4.66924 1.173C4.77657 1.131 4.88624 1.11 4.99824 1.11C5.25957 1.11 5.46607 1.1905 5.61774 1.3515C5.76941 1.51017 5.84524 1.74467 5.84524 2.055C5.84524 2.08533 5.84407 2.11917 5.84174 2.1565C5.83941 2.1915 5.83707 2.223 5.83474 2.251H4.65174C4.66341 2.35833 4.71357 2.4435 4.80224 2.5065C4.89091 2.5695 5.00991 2.601 5.15924 2.601C5.25491 2.601 5.34824 2.59283 5.43924 2.5765C5.53257 2.55783 5.60841 2.53567 5.66674 2.51L5.73674 2.9335C5.70874 2.9475 5.67141 2.9615 5.62474 2.9755C5.57807 2.9895 5.52557 3.00117 5.46724 3.0105C5.41124 3.02217 5.35057 3.0315 5.28524 3.0385C5.21991 3.0455 5.15457 3.049 5.08924 3.049C4.92357 3.049 4.77891 3.0245 4.65524 2.9755C4.53391 2.9265 4.43241 2.86 4.35074 2.776C4.27141 2.68967 4.21191 2.58817 4.17224 2.4715C4.13491 2.35483 4.11624 2.22883 4.11624 2.0935ZM5.34124 1.894C5.33891 1.84967 5.33074 1.8065 5.31674 1.7645C5.30507 1.7225 5.28524 1.68517 5.25724 1.6525C5.23157 1.61983 5.19774 1.593 5.15574 1.572C5.11607 1.551 5.06591 1.5405 5.00524 1.5405C4.94691 1.5405 4.89674 1.551 4.85474 1.572C4.81274 1.59067 4.77774 1.61633 4.74974 1.649C4.72174 1.68167 4.69957 1.72017 4.68324 1.7645C4.66924 1.8065 4.65874 1.84967 4.65174 1.894H5.34124ZM6.95119 2.636C7.00252 2.636 7.05152 2.63483 7.09819 2.6325C7.14485 2.63017 7.18219 2.62667 7.21019 2.622V2.2265C7.18919 2.22183 7.15769 2.21717 7.11569 2.2125C7.07369 2.20783 7.03519 2.2055 7.00019 2.2055C6.95119 2.2055 6.90452 2.209 6.86019 2.216C6.81819 2.22067 6.78085 2.23117 6.74819 2.2475C6.71552 2.26383 6.68985 2.286 6.67119 2.314C6.65252 2.342 6.64319 2.377 6.64319 2.419C6.64319 2.50067 6.67002 2.55783 6.72369 2.5905C6.77969 2.62083 6.85552 2.636 6.95119 2.636ZM6.90919 1.11C7.06319 1.11 7.19152 1.1275 7.29419 1.1625C7.39685 1.1975 7.47852 1.24767 7.53919 1.313C7.60219 1.37833 7.64652 1.45767 7.67219 1.551C7.69785 1.64433 7.71069 1.74817 7.71069 1.8625V2.9475C7.63602 2.96383 7.53219 2.9825 7.39919 3.0035C7.26619 3.02683 7.10519 3.0385 6.91619 3.0385C6.79719 3.0385 6.68869 3.028 6.59069 3.007C6.49502 2.986 6.41219 2.95217 6.34219 2.9055C6.27219 2.8565 6.21852 2.7935 6.18119 2.7165C6.14385 2.6395 6.12519 2.545 6.12519 2.433C6.12519 2.32567 6.14619 2.23467 6.18819 2.16C6.23252 2.08533 6.29085 2.02583 6.36319 1.9815C6.43552 1.93717 6.51835 1.90567 6.61169 1.887C6.70502 1.866 6.80185 1.8555 6.90219 1.8555C6.96985 1.8555 7.02935 1.859 7.08069 1.866C7.13435 1.87067 7.17752 1.87767 7.21019 1.887V1.838C7.21019 1.74933 7.18335 1.67817 7.12969 1.6245C7.07602 1.57083 6.98269 1.544 6.84969 1.544C6.76102 1.544 6.67352 1.551 6.58719 1.565C6.50085 1.57667 6.42619 1.59417 6.36319 1.6175L6.29669 1.1975C6.32702 1.18817 6.36435 1.17883 6.40869 1.1695C6.45535 1.15783 6.50552 1.1485 6.55919 1.1415C6.61285 1.13217 6.66885 1.12517 6.72719 1.1205C6.78785 1.1135 6.84852 1.11 6.90919 1.11ZM8.16476 0.7005L8.68626 0.6165V1.159H9.31276V1.593H8.68626V2.2405C8.68626 2.35017 8.70492 2.43767 8.74226 2.503C8.78192 2.56833 8.86009 2.601 8.97676 2.601C9.03276 2.601 9.08992 2.59633 9.14826 2.587C9.20892 2.57533 9.26376 2.56017 9.31276 2.5415L9.38626 2.9475C9.32326 2.97317 9.25326 2.99533 9.17626 3.014C9.09926 3.03267 9.00476 3.042 8.89276 3.042C8.75042 3.042 8.63259 3.02333 8.53926 2.986C8.44592 2.94633 8.37126 2.89267 8.31526 2.825C8.25926 2.755 8.21959 2.671 8.19626 2.573C8.17526 2.475 8.16476 2.3665 8.16476 2.2475V0.7005ZM9.58157 2.0935C9.58157 1.93017 9.60607 1.78783 9.65507 1.6665C9.70641 1.54283 9.77291 1.44017 9.85457 1.3585C9.93624 1.27683 10.0296 1.215 10.1346 1.173C10.2419 1.131 10.3516 1.11 10.4636 1.11C10.7249 1.11 10.9314 1.1905 11.0831 1.3515C11.2347 1.51017 11.3106 1.74467 11.3106 2.055C11.3106 2.08533 11.3094 2.11917 11.3071 2.1565C11.3047 2.1915 11.3024 2.223 11.3001 2.251H10.1171C10.1287 2.35833 10.1789 2.4435 10.2676 2.5065C10.3562 2.5695 10.4752 2.601 10.6246 2.601C10.7202 2.601 10.8136 2.59283 10.9046 2.5765C10.9979 2.55783 11.0737 2.53567 11.1321 2.51L11.2021 2.9335C11.1741 2.9475 11.1367 2.9615 11.0901 2.9755C11.0434 2.9895 10.9909 3.00117 10.9326 3.0105C10.8766 3.02217 10.8159 3.0315 10.7506 3.0385C10.6852 3.0455 10.6199 3.049 10.5546 3.049C10.3889 3.049 10.2442 3.0245 10.1206 2.9755C9.99924 2.9265 9.89774 2.86 9.81607 2.776C9.73674 2.68967 9.67724 2.58817 9.63757 2.4715C9.60024 2.35483 9.58157 2.22883 9.58157 2.0935ZM10.8066 1.894C10.8042 1.84967 10.7961 1.8065 10.7821 1.7645C10.7704 1.7225 10.7506 1.68517 10.7226 1.6525C10.6969 1.61983 10.6631 1.593 10.6211 1.572C10.5814 1.551 10.5312 1.5405 10.4706 1.5405C10.4122 1.5405 10.3621 1.551 10.3201 1.572C10.2781 1.59067 10.2431 1.61633 10.2151 1.649C10.1871 1.68167 10.1649 1.72017 10.1486 1.7645C10.1346 1.8065 10.1241 1.84967 10.1171 1.894H10.8066ZM13.2573 2.636C13.3087 2.636 13.3577 2.63483 13.4043 2.6325C13.451 2.63017 13.4883 2.62667 13.5163 2.622V2.2265C13.4953 2.22183 13.4638 2.21717 13.4218 2.2125C13.3798 2.20783 13.3413 2.2055 13.3063 2.2055C13.2573 2.2055 13.2107 2.209 13.1663 2.216C13.1243 2.22067 13.087 2.23117 13.0543 2.2475C13.0217 2.26383 12.996 2.286 12.9773 2.314C12.9587 2.342 12.9493 2.377 12.9493 2.419C12.9493 2.50067 12.9762 2.55783 13.0298 2.5905C13.0858 2.62083 13.1617 2.636 13.2573 2.636ZM13.2153 1.11C13.3693 1.11 13.4977 1.1275 13.6003 1.1625C13.703 1.1975 13.7847 1.24767 13.8453 1.313C13.9083 1.37833 13.9527 1.45767 13.9783 1.551C14.004 1.64433 14.0168 1.74817 14.0168 1.8625V2.9475C13.9422 2.96383 13.8383 2.9825 13.7053 3.0035C13.5723 3.02683 13.4113 3.0385 13.2223 3.0385C13.1033 3.0385 12.9948 3.028 12.8968 3.007C12.8012 2.986 12.7183 2.95217 12.6483 2.9055C12.5783 2.8565 12.5247 2.7935 12.4873 2.7165C12.45 2.6395 12.4313 2.545 12.4313 2.433C12.4313 2.32567 12.4523 2.23467 12.4943 2.16C12.5387 2.08533 12.597 2.02583 12.6693 1.9815C12.7417 1.93717 12.8245 1.90567 12.9178 1.887C13.0112 1.866 13.108 1.8555 13.2083 1.8555C13.276 1.8555 13.3355 1.859 13.3868 1.866C13.4405 1.87067 13.4837 1.87767 13.5163 1.887V1.838C13.5163 1.74933 13.4895 1.67817 13.4358 1.6245C13.3822 1.57083 13.2888 1.544 13.1558 1.544C13.0672 1.544 12.9797 1.551 12.8933 1.565C12.807 1.57667 12.7323 1.59417 12.6693 1.6175L12.6028 1.1975C12.6332 1.18817 12.6705 1.17883 12.7148 1.1695C12.7615 1.15783 12.8117 1.1485 12.8653 1.1415C12.919 1.13217 12.975 1.12517 13.0333 1.1205C13.094 1.1135 13.1547 1.11 13.2153 1.11ZM14.4884 1.222C14.5771 1.19633 14.6914 1.173 14.8314 1.152C14.9714 1.12867 15.1184 1.117 15.2724 1.117C15.4287 1.117 15.5582 1.138 15.6609 1.18C15.7659 1.21967 15.8487 1.27683 15.9094 1.3515C15.9701 1.42617 16.0132 1.51483 16.0389 1.6175C16.0646 1.72017 16.0774 1.8345 16.0774 1.9605V3H15.5559V2.0235C15.5559 1.8555 15.5337 1.7365 15.4894 1.6665C15.4451 1.5965 15.3622 1.5615 15.2409 1.5615C15.2036 1.5615 15.1639 1.56383 15.1219 1.5685C15.0799 1.57083 15.0426 1.57433 15.0099 1.579V3H14.4884V1.222ZM16.9939 2.0655C16.9939 2.2265 17.0301 2.356 17.1024 2.454C17.1748 2.552 17.2821 2.601 17.4244 2.601C17.4711 2.601 17.5143 2.59983 17.5539 2.5975C17.5936 2.59283 17.6263 2.58817 17.6519 2.5835V1.635C17.6193 1.614 17.5761 1.5965 17.5224 1.5825C17.4711 1.5685 17.4186 1.5615 17.3649 1.5615C17.1176 1.5615 16.9939 1.7295 16.9939 2.0655ZM18.1734 2.9405C18.1268 2.9545 18.0731 2.9685 18.0124 2.9825C17.9518 2.99417 17.8876 3.00467 17.8199 3.014C17.7546 3.02333 17.6869 3.03033 17.6169 3.035C17.5493 3.042 17.4839 3.0455 17.4209 3.0455C17.2693 3.0455 17.1339 3.02333 17.0149 2.979C16.8959 2.93467 16.7956 2.87167 16.7139 2.79C16.6323 2.706 16.5693 2.60567 16.5249 2.489C16.4829 2.37 16.4619 2.237 16.4619 2.09C16.4619 1.94067 16.4806 1.8065 16.5179 1.6875C16.5553 1.56617 16.6089 1.4635 16.6789 1.3795C16.7489 1.2955 16.8341 1.23133 16.9344 1.187C17.0371 1.14267 17.1538 1.1205 17.2844 1.1205C17.3568 1.1205 17.4209 1.1275 17.4769 1.1415C17.5353 1.1555 17.5936 1.17533 17.6519 1.201V0.368L18.1734 0.284V2.9405ZM20.0311 2.6255C20.1267 2.6255 20.1944 2.61617 20.2341 2.5975C20.2737 2.57883 20.2936 2.54267 20.2936 2.489C20.2936 2.447 20.2679 2.41083 20.2166 2.3805C20.1652 2.34783 20.0871 2.31167 19.9821 2.272C19.9004 2.24167 19.8257 2.21017 19.7581 2.1775C19.6927 2.14483 19.6367 2.10633 19.5901 2.062C19.5434 2.01533 19.5072 1.9605 19.4816 1.8975C19.4559 1.8345 19.4431 1.75867 19.4431 1.67C19.4431 1.49733 19.5072 1.36083 19.6356 1.2605C19.7639 1.16017 19.9401 1.11 20.1641 1.11C20.2761 1.11 20.3834 1.1205 20.4861 1.1415C20.5887 1.16017 20.6704 1.18117 20.7311 1.2045L20.6401 1.6105C20.5794 1.5895 20.5129 1.57083 20.4406 1.5545C20.3706 1.53817 20.2912 1.53 20.2026 1.53C20.0392 1.53 19.9576 1.5755 19.9576 1.6665C19.9576 1.6875 19.9611 1.70617 19.9681 1.7225C19.9751 1.73883 19.9891 1.75517 20.0101 1.7715C20.0311 1.7855 20.0591 1.80183 20.0941 1.8205C20.1314 1.83683 20.1781 1.8555 20.2341 1.8765C20.3484 1.9185 20.4429 1.9605 20.5176 2.0025C20.5922 2.04217 20.6506 2.0865 20.6926 2.1355C20.7369 2.18217 20.7672 2.23467 20.7836 2.293C20.8022 2.35133 20.8116 2.419 20.8116 2.496C20.8116 2.678 20.7427 2.81567 20.6051 2.909C20.4697 3.00233 20.2772 3.049 20.0276 3.049C19.8642 3.049 19.7277 3.035 19.6181 3.007C19.5107 2.979 19.4361 2.95567 19.3941 2.937L19.4816 2.5135C19.5702 2.5485 19.6612 2.5765 19.7546 2.5975C19.8479 2.61617 19.9401 2.6255 20.0311 2.6255ZM21.1838 0.7005L21.7053 0.6165V1.159H22.3318V1.593H21.7053V2.2405C21.7053 2.35017 21.724 2.43767 21.7613 2.503C21.801 2.56833 21.8791 2.601 21.9958 2.601C22.0518 2.601 22.109 2.59633 22.1673 2.587C22.228 2.57533 22.2828 2.56017 22.3318 2.5415L22.4053 2.9475C22.3423 2.97317 22.2723 2.99533 22.1953 3.014C22.1183 3.03267 22.0238 3.042 21.9118 3.042C21.7695 3.042 21.6516 3.02333 21.5583 2.986C21.465 2.94633 21.3903 2.89267 21.3343 2.825C21.2783 2.755 21.2386 2.671 21.2153 2.573C21.1943 2.475 21.1838 2.3665 21.1838 2.2475V0.7005ZM24.4101 2.076C24.4101 2.22067 24.3891 2.35367 24.3471 2.475C24.3051 2.594 24.2444 2.69667 24.1651 2.783C24.0858 2.867 23.9901 2.93233 23.8781 2.979C23.7684 3.02567 23.6448 3.049 23.5071 3.049C23.3718 3.049 23.2481 3.02567 23.1361 2.979C23.0264 2.93233 22.9319 2.867 22.8526 2.783C22.7733 2.69667 22.7114 2.594 22.6671 2.475C22.6228 2.35367 22.6006 2.22067 22.6006 2.076C22.6006 1.93133 22.6228 1.7995 22.6671 1.6805C22.7138 1.5615 22.7768 1.46 22.8561 1.376C22.9378 1.292 23.0334 1.22667 23.1431 1.18C23.2551 1.13333 23.3764 1.11 23.5071 1.11C23.6401 1.11 23.7614 1.13333 23.8711 1.18C23.9831 1.22667 24.0788 1.292 24.1581 1.376C24.2374 1.46 24.2993 1.5615 24.3436 1.6805C24.3879 1.7995 24.4101 1.93133 24.4101 2.076ZM23.8781 2.076C23.8781 1.915 23.8454 1.789 23.7801 1.698C23.7171 1.60467 23.6261 1.558 23.5071 1.558C23.3881 1.558 23.2959 1.60467 23.2306 1.698C23.1653 1.789 23.1326 1.915 23.1326 2.076C23.1326 2.237 23.1653 2.36533 23.2306 2.461C23.2959 2.55433 23.3881 2.601 23.5071 2.601C23.6261 2.601 23.7171 2.55433 23.7801 2.461C23.8454 2.36533 23.8781 2.237 23.8781 2.076ZM25.9236 1.621C25.8769 1.60933 25.8221 1.59767 25.7591 1.586C25.6961 1.572 25.6284 1.565 25.5561 1.565C25.5234 1.565 25.4838 1.5685 25.4371 1.5755C25.3928 1.58017 25.3589 1.586 25.3356 1.593V3H24.8141V1.257C24.9074 1.22433 25.0171 1.194 25.1431 1.166C25.2714 1.13567 25.4138 1.1205 25.5701 1.1205C25.5981 1.1205 25.6319 1.12283 25.6716 1.1275C25.7113 1.12983 25.7509 1.1345 25.7906 1.1415C25.8303 1.14617 25.8699 1.15317 25.9096 1.1625C25.9493 1.1695 25.9831 1.17883 26.0111 1.1905L25.9236 1.621ZM26.169 2.0935C26.169 1.93017 26.1935 1.78783 26.2425 1.6665C26.2938 1.54283 26.3603 1.44017 26.442 1.3585C26.5236 1.27683 26.617 1.215 26.722 1.173C26.8293 1.131 26.939 1.11 27.051 1.11C27.3123 1.11 27.5188 1.1905 27.6705 1.3515C27.8221 1.51017 27.898 1.74467 27.898 2.055C27.898 2.08533 27.8968 2.11917 27.8945 2.1565C27.8921 2.1915 27.8898 2.223 27.8875 2.251H26.7045C26.7161 2.35833 26.7663 2.4435 26.855 2.5065C26.9436 2.5695 27.0626 2.601 27.212 2.601C27.3076 2.601 27.401 2.59283 27.492 2.5765C27.5853 2.55783 27.6611 2.53567 27.7195 2.51L27.7895 2.9335C27.7615 2.9475 27.7241 2.9615 27.6775 2.9755C27.6308 2.9895 27.5783 3.00117 27.52 3.0105C27.464 3.02217 27.4033 3.0315 27.338 3.0385C27.2726 3.0455 27.2073 3.049 27.142 3.049C26.9763 3.049 26.8316 3.0245 26.708 2.9755C26.5866 2.9265 26.4851 2.86 26.4035 2.776C26.3241 2.68967 26.2646 2.58817 26.225 2.4715C26.1876 2.35483 26.169 2.22883 26.169 2.0935ZM27.394 1.894C27.3916 1.84967 27.3835 1.8065 27.3695 1.7645C27.3578 1.7225 27.338 1.68517 27.31 1.6525C27.2843 1.61983 27.2505 1.593 27.2085 1.572C27.1688 1.551 27.1186 1.5405 27.058 1.5405C26.9996 1.5405 26.9495 1.551 26.9075 1.572C26.8655 1.59067 26.8305 1.61633 26.8025 1.649C26.7745 1.68167 26.7523 1.72017 26.736 1.7645C26.722 1.8065 26.7115 1.84967 26.7045 1.894H27.394ZM29.9042 0.5465C30.2659 0.5465 30.5436 0.610667 30.7372 0.739C30.9309 0.865 31.0277 1.07267 31.0277 1.362C31.0277 1.65367 30.9297 1.86483 30.7337 1.9955C30.5377 2.12383 30.2577 2.188 29.8937 2.188H29.7222V3H29.1762V0.6095C29.2952 0.586167 29.4212 0.569833 29.5542 0.5605C29.6872 0.551167 29.8039 0.5465 29.9042 0.5465ZM29.9392 1.012C29.8996 1.012 29.8599 1.01317 29.8202 1.0155C29.7829 1.01783 29.7502 1.02017 29.7222 1.0225V1.7225H29.8937C30.0827 1.7225 30.2251 1.69683 30.3207 1.6455C30.4164 1.59417 30.4642 1.4985 30.4642 1.3585C30.4642 1.29083 30.4514 1.23483 30.4257 1.1905C30.4024 1.14617 30.3674 1.11117 30.3207 1.0855C30.2764 1.0575 30.2216 1.03883 30.1562 1.0295C30.0909 1.01783 30.0186 1.012 29.9392 1.012ZM31.9152 3H31.3937V1.159H31.9152V3ZM31.9642 0.627C31.9642 0.722667 31.9327 0.7985 31.8697 0.8545C31.809 0.908167 31.7367 0.935 31.6527 0.935C31.5687 0.935 31.4952 0.908167 31.4322 0.8545C31.3715 0.7985 31.3412 0.722667 31.3412 0.627C31.3412 0.531333 31.3715 0.456667 31.4322 0.403C31.4952 0.347 31.5687 0.319 31.6527 0.319C31.7367 0.319 31.809 0.347 31.8697 0.403C31.9327 0.456667 31.9642 0.531333 31.9642 0.627ZM32.3179 2.0935C32.3179 1.93017 32.3424 1.78783 32.3914 1.6665C32.4427 1.54283 32.5092 1.44017 32.5909 1.3585C32.6726 1.27683 32.7659 1.215 32.8709 1.173C32.9782 1.131 33.0879 1.11 33.1999 1.11C33.4612 1.11 33.6677 1.1905 33.8194 1.3515C33.9711 1.51017 34.0469 1.74467 34.0469 2.055C34.0469 2.08533 34.0457 2.11917 34.0434 2.1565C34.0411 2.1915 34.0387 2.223 34.0364 2.251H32.8534C32.8651 2.35833 32.9152 2.4435 33.0039 2.5065C33.0926 2.5695 33.2116 2.601 33.3609 2.601C33.4566 2.601 33.5499 2.59283 33.6409 2.5765C33.7342 2.55783 33.8101 2.53567 33.8684 2.51L33.9384 2.9335C33.9104 2.9475 33.8731 2.9615 33.8264 2.9755C33.7797 2.9895 33.7272 3.00117 33.6689 3.0105C33.6129 3.02217 33.5522 3.0315 33.4869 3.0385C33.4216 3.0455 33.3562 3.049 33.2909 3.049C33.1252 3.049 32.9806 3.0245 32.8569 2.9755C32.7356 2.9265 32.6341 2.86 32.5524 2.776C32.4731 2.68967 32.4136 2.58817 32.3739 2.4715C32.3366 2.35483 32.3179 2.22883 32.3179 2.0935ZM33.5429 1.894C33.5406 1.84967 33.5324 1.8065 33.5184 1.7645C33.5067 1.7225 33.4869 1.68517 33.4589 1.6525C33.4332 1.61983 33.3994 1.593 33.3574 1.572C33.3177 1.551 33.2676 1.5405 33.2069 1.5405C33.1486 1.5405 33.0984 1.551 33.0564 1.572C33.0144 1.59067 32.9794 1.61633 32.9514 1.649C32.9234 1.68167 32.9012 1.72017 32.8849 1.7645C32.8709 1.8065 32.8604 1.84967 32.8534 1.894H33.5429ZM34.3618 2.0795C34.3618 1.9465 34.3828 1.82167 34.4248 1.705C34.4692 1.586 34.5322 1.48333 34.6138 1.397C34.6955 1.30833 34.7947 1.23833 34.9113 1.187C35.028 1.13567 35.161 1.11 35.3103 1.11C35.4083 1.11 35.4982 1.11933 35.5798 1.138C35.6615 1.15433 35.7408 1.17883 35.8178 1.2115L35.7093 1.628C35.6603 1.60933 35.6067 1.593 35.5483 1.579C35.49 1.565 35.4247 1.558 35.3523 1.558C35.1983 1.558 35.0828 1.60583 35.0058 1.7015C34.9312 1.79717 34.8938 1.92317 34.8938 2.0795C34.8938 2.24517 34.9288 2.3735 34.9988 2.4645C35.0712 2.5555 35.196 2.601 35.3733 2.601C35.4363 2.601 35.504 2.59517 35.5763 2.5835C35.6487 2.57183 35.7152 2.55317 35.7758 2.5275L35.8493 2.9545C35.7887 2.98017 35.7128 3.00233 35.6218 3.021C35.5308 3.03967 35.4305 3.049 35.3208 3.049C35.1528 3.049 35.0082 3.0245 34.8868 2.9755C34.7655 2.92417 34.6652 2.85533 34.5858 2.769C34.5088 2.68267 34.4517 2.58117 34.4143 2.4645C34.3793 2.3455 34.3618 2.21717 34.3618 2.0795ZM36.023 2.0935C36.023 1.93017 36.0475 1.78783 36.0965 1.6665C36.1478 1.54283 36.2143 1.44017 36.296 1.3585C36.3776 1.27683 36.471 1.215 36.576 1.173C36.6833 1.131 36.793 1.11 36.905 1.11C37.1663 1.11 37.3728 1.1905 37.5245 1.3515C37.6761 1.51017 37.752 1.74467 37.752 2.055C37.752 2.08533 37.7508 2.11917 37.7485 2.1565C37.7461 2.1915 37.7438 2.223 37.7415 2.251H36.5585C36.5701 2.35833 36.6203 2.4435 36.709 2.5065C36.7976 2.5695 36.9166 2.601 37.066 2.601C37.1616 2.601 37.255 2.59283 37.346 2.5765C37.4393 2.55783 37.5151 2.53567 37.5735 2.51L37.6435 2.9335C37.6155 2.9475 37.5781 2.9615 37.5315 2.9755C37.4848 2.9895 37.4323 3.00117 37.374 3.0105C37.318 3.02217 37.2573 3.0315 37.192 3.0385C37.1266 3.0455 37.0613 3.049 36.996 3.049C36.8303 3.049 36.6856 3.0245 36.562 2.9755C36.4406 2.9265 36.3391 2.86 36.2575 2.776C36.1781 2.68967 36.1186 2.58817 36.079 2.4715C36.0416 2.35483 36.023 2.22883 36.023 2.0935ZM37.248 1.894C37.2456 1.84967 37.2375 1.8065 37.2235 1.7645C37.2118 1.7225 37.192 1.68517 37.164 1.6525C37.1383 1.61983 37.1045 1.593 37.0625 1.572C37.0228 1.551 36.9726 1.5405 36.912 1.5405C36.8536 1.5405 36.8035 1.551 36.7615 1.572C36.7195 1.59067 36.6845 1.61633 36.6565 1.649C36.6285 1.68167 36.6063 1.72017 36.59 1.7645C36.576 1.8065 36.5655 1.84967 36.5585 1.894H37.248ZM38.6829 2.6255C38.7786 2.6255 38.8463 2.61617 38.8859 2.5975C38.9256 2.57883 38.9454 2.54267 38.9454 2.489C38.9454 2.447 38.9198 2.41083 38.8684 2.3805C38.8171 2.34783 38.7389 2.31167 38.6339 2.272C38.5523 2.24167 38.4776 2.21017 38.4099 2.1775C38.3446 2.14483 38.2886 2.10633 38.2419 2.062C38.1953 2.01533 38.1591 1.9605 38.1334 1.8975C38.1078 1.8345 38.0949 1.75867 38.0949 1.67C38.0949 1.49733 38.1591 1.36083 38.2874 1.2605C38.4158 1.16017 38.5919 1.11 38.8159 1.11C38.9279 1.11 39.0353 1.1205 39.1379 1.1415C39.2406 1.16017 39.3223 1.18117 39.3829 1.2045L39.2919 1.6105C39.2313 1.5895 39.1648 1.57083 39.0924 1.5545C39.0224 1.53817 38.9431 1.53 38.8544 1.53C38.6911 1.53 38.6094 1.5755 38.6094 1.6665C38.6094 1.6875 38.6129 1.70617 38.6199 1.7225C38.6269 1.73883 38.6409 1.75517 38.6619 1.7715C38.6829 1.7855 38.7109 1.80183 38.7459 1.8205C38.7833 1.83683 38.8299 1.8555 38.8859 1.8765C39.0003 1.9185 39.0948 1.9605 39.1694 2.0025C39.2441 2.04217 39.3024 2.0865 39.3444 2.1355C39.3888 2.18217 39.4191 2.23467 39.4354 2.293C39.4541 2.35133 39.4634 2.419 39.4634 2.496C39.4634 2.678 39.3946 2.81567 39.2569 2.909C39.1216 3.00233 38.9291 3.049 38.6794 3.049C38.5161 3.049 38.3796 3.035 38.2699 3.007C38.1626 2.979 38.0879 2.95567 38.0459 2.937L38.1334 2.5135C38.2221 2.5485 38.3131 2.5765 38.4064 2.5975C38.4998 2.61617 38.5919 2.6255 38.6829 2.6255ZM41.8035 1.621C41.7568 1.60933 41.702 1.59767 41.639 1.586C41.576 1.572 41.5083 1.565 41.436 1.565C41.4033 1.565 41.3636 1.5685 41.317 1.5755C41.2726 1.58017 41.2388 1.586 41.2155 1.593V3H40.694V1.257C40.7873 1.22433 40.897 1.194 41.023 1.166C41.1513 1.13567 41.2936 1.1205 41.45 1.1205C41.478 1.1205 41.5118 1.12283 41.5515 1.1275C41.5911 1.12983 41.6308 1.1345 41.6705 1.1415C41.7101 1.14617 41.7498 1.15317 41.7895 1.1625C41.8291 1.1695 41.863 1.17883 41.891 1.1905L41.8035 1.621ZM42.0489 2.0935C42.0489 1.93017 42.0734 1.78783 42.1224 1.6665C42.1737 1.54283 42.2402 1.44017 42.3219 1.3585C42.4035 1.27683 42.4969 1.215 42.6019 1.173C42.7092 1.131 42.8189 1.11 42.9309 1.11C43.1922 1.11 43.3987 1.1905 43.5504 1.3515C43.702 1.51017 43.7779 1.74467 43.7779 2.055C43.7779 2.08533 43.7767 2.11917 43.7744 2.1565C43.772 2.1915 43.7697 2.223 43.7674 2.251H42.5844C42.596 2.35833 42.6462 2.4435 42.7349 2.5065C42.8235 2.5695 42.9425 2.601 43.0919 2.601C43.1875 2.601 43.2809 2.59283 43.3719 2.5765C43.4652 2.55783 43.541 2.53567 43.5994 2.51L43.6694 2.9335C43.6414 2.9475 43.604 2.9615 43.5574 2.9755C43.5107 2.9895 43.4582 3.00117 43.3999 3.0105C43.3439 3.02217 43.2832 3.0315 43.2179 3.0385C43.1525 3.0455 43.0872 3.049 43.0219 3.049C42.8562 3.049 42.7115 3.0245 42.5879 2.9755C42.4665 2.9265 42.365 2.86 42.2834 2.776C42.204 2.68967 42.1445 2.58817 42.1049 2.4715C42.0675 2.35483 42.0489 2.22883 42.0489 2.0935ZM43.2739 1.894C43.2715 1.84967 43.2634 1.8065 43.2494 1.7645C43.2377 1.7225 43.2179 1.68517 43.1899 1.6525C43.1642 1.61983 43.1304 1.593 43.0884 1.572C43.0487 1.551 42.9985 1.5405 42.9379 1.5405C42.8795 1.5405 42.8294 1.551 42.7874 1.572C42.7454 1.59067 42.7104 1.61633 42.6824 1.649C42.6544 1.68167 42.6322 1.72017 42.6159 1.7645C42.6019 1.8065 42.5914 1.84967 42.5844 1.894H43.2739ZM44.8838 2.636C44.9351 2.636 44.9841 2.63483 45.0308 2.6325C45.0775 2.63017 45.1148 2.62667 45.1428 2.622V2.2265C45.1218 2.22183 45.0903 2.21717 45.0483 2.2125C45.0063 2.20783 44.9678 2.2055 44.9328 2.2055C44.8838 2.2055 44.8371 2.209 44.7928 2.216C44.7508 2.22067 44.7135 2.23117 44.6808 2.2475C44.6481 2.26383 44.6225 2.286 44.6038 2.314C44.5851 2.342 44.5758 2.377 44.5758 2.419C44.5758 2.50067 44.6026 2.55783 44.6563 2.5905C44.7123 2.62083 44.7881 2.636 44.8838 2.636ZM44.8418 1.11C44.9958 1.11 45.1241 1.1275 45.2268 1.1625C45.3295 1.1975 45.4111 1.24767 45.4718 1.313C45.5348 1.37833 45.5791 1.45767 45.6048 1.551C45.6305 1.64433 45.6433 1.74817 45.6433 1.8625V2.9475C45.5686 2.96383 45.4648 2.9825 45.3318 3.0035C45.1988 3.02683 45.0378 3.0385 44.8488 3.0385C44.7298 3.0385 44.6213 3.028 44.5233 3.007C44.4276 2.986 44.3448 2.95217 44.2748 2.9055C44.2048 2.8565 44.1511 2.7935 44.1138 2.7165C44.0765 2.6395 44.0578 2.545 44.0578 2.433C44.0578 2.32567 44.0788 2.23467 44.1208 2.16C44.1651 2.08533 44.2235 2.02583 44.2958 1.9815C44.3681 1.93717 44.451 1.90567 44.5443 1.887C44.6376 1.866 44.7345 1.8555 44.8348 1.8555C44.9025 1.8555 44.962 1.859 45.0133 1.866C45.067 1.87067 45.1101 1.87767 45.1428 1.887V1.838C45.1428 1.74933 45.116 1.67817 45.0623 1.6245C45.0086 1.57083 44.9153 1.544 44.7823 1.544C44.6936 1.544 44.6061 1.551 44.5198 1.565C44.4335 1.57667 44.3588 1.59417 44.2958 1.6175L44.2293 1.1975C44.2596 1.18817 44.297 1.17883 44.3413 1.1695C44.388 1.15783 44.4381 1.1485 44.4918 1.1415C44.5455 1.13217 44.6015 1.12517 44.6598 1.1205C44.7205 1.1135 44.7811 1.11 44.8418 1.11ZM46.8499 3.035C46.6982 3.03267 46.5745 3.01633 46.4789 2.986C46.3855 2.95567 46.3109 2.91367 46.2549 2.86C46.2012 2.804 46.1639 2.7375 46.1429 2.6605C46.1242 2.58117 46.1149 2.4925 46.1149 2.3945V0.368L46.6364 0.284V2.2895C46.6364 2.33617 46.6399 2.37817 46.6469 2.4155C46.6539 2.45283 46.6667 2.48433 46.6854 2.51C46.7064 2.53567 46.7355 2.55667 46.7729 2.573C46.8102 2.58933 46.8604 2.59983 46.9234 2.6045L46.8499 3.035ZM48.5076 2.0935C48.5076 2.42717 48.6313 2.594 48.8786 2.594C48.9323 2.594 48.9848 2.587 49.0361 2.573C49.0898 2.559 49.1329 2.5415 49.1656 2.5205V1.579C49.1399 1.57433 49.1073 1.57083 49.0676 1.5685C49.0279 1.56383 48.9848 1.5615 48.9381 1.5615C48.7958 1.5615 48.6884 1.6105 48.6161 1.7085C48.5438 1.80417 48.5076 1.9325 48.5076 2.0935ZM47.9756 2.0795C47.9756 1.93717 47.9966 1.80767 48.0386 1.691C48.0829 1.572 48.1459 1.4705 48.2276 1.3865C48.3093 1.30017 48.4096 1.23367 48.5286 1.187C48.6476 1.14033 48.7829 1.117 48.9346 1.117C48.9976 1.117 49.0629 1.1205 49.1306 1.1275C49.2006 1.13217 49.2683 1.13917 49.3336 1.1485C49.4013 1.15783 49.4654 1.1695 49.5261 1.1835C49.5868 1.19517 49.6404 1.208 49.6871 1.222V3.6475H49.1656V2.9545C49.1073 2.98017 49.0466 3 48.9836 3.014C48.9206 3.028 48.8529 3.035 48.7806 3.035C48.5193 3.035 48.3198 2.94983 48.1821 2.7795C48.0444 2.60683 47.9756 2.3735 47.9756 2.0795ZM51.7469 2.937C51.6583 2.96267 51.5439 2.986 51.4039 3.007C51.2639 3.03033 51.1169 3.042 50.9629 3.042C50.8066 3.042 50.6759 3.021 50.5709 2.979C50.4683 2.937 50.3866 2.87867 50.3259 2.804C50.2653 2.727 50.2221 2.636 50.1964 2.531C50.1708 2.426 50.1579 2.3105 50.1579 2.1845V1.159H50.6794V2.1215C50.6794 2.2895 50.7016 2.41083 50.7459 2.4855C50.7903 2.56017 50.8731 2.5975 50.9944 2.5975C51.0318 2.5975 51.0714 2.59633 51.1134 2.594C51.1554 2.58933 51.1928 2.58467 51.2254 2.58V1.159H51.7469V2.937ZM52.758 3H52.2365V1.159H52.758V3ZM52.807 0.627C52.807 0.722667 52.7755 0.7985 52.7125 0.8545C52.6518 0.908167 52.5795 0.935 52.4955 0.935C52.4115 0.935 52.338 0.908167 52.275 0.8545C52.2143 0.7985 52.184 0.722667 52.184 0.627C52.184 0.531333 52.2143 0.456667 52.275 0.403C52.338 0.347 52.4115 0.319 52.4955 0.319C52.5795 0.319 52.6518 0.347 52.7125 0.403C52.7755 0.456667 52.807 0.531333 52.807 0.627ZM53.1607 2.0795C53.1607 1.9465 53.1817 1.82167 53.2237 1.705C53.268 1.586 53.331 1.48333 53.4127 1.397C53.4943 1.30833 53.5935 1.23833 53.7102 1.187C53.8268 1.13567 53.9598 1.11 54.1092 1.11C54.2072 1.11 54.297 1.11933 54.3787 1.138C54.4603 1.15433 54.5397 1.17883 54.6167 1.2115L54.5082 1.628C54.4592 1.60933 54.4055 1.593 54.3472 1.579C54.2888 1.565 54.2235 1.558 54.1512 1.558C53.9972 1.558 53.8817 1.60583 53.8047 1.7015C53.73 1.79717 53.6927 1.92317 53.6927 2.0795C53.6927 2.24517 53.7277 2.3735 53.7977 2.4645C53.87 2.5555 53.9948 2.601 54.1722 2.601C54.2352 2.601 54.3028 2.59517 54.3752 2.5835C54.4475 2.57183 54.514 2.55317 54.5747 2.5275L54.6482 2.9545C54.5875 2.98017 54.5117 3.00233 54.4207 3.021C54.3297 3.03967 54.2293 3.049 54.1197 3.049C53.9517 3.049 53.807 3.0245 53.6857 2.9755C53.5643 2.92417 53.464 2.85533 53.3847 2.769C53.3077 2.68267 53.2505 2.58117 53.2132 2.4645C53.1782 2.3455 53.1607 2.21717 53.1607 2.0795Z" fill="#5865F2"/>
</svg>
